<svg xmlns="http://www.w3.org/2000/svg" viewBox="0 0 116 40"><g fill="none" fill-rule="evenodd"><g fill-rule="nonzero"><path d="M20 0C8.954 0 0 8.954 0 20s8.954 20 20 20 20-8.954 20-20A20 20 0 0 0 20 0" fill="#FFF"/><path d="M8 25.32a22.42 22.42 0 0 1-.5-2.62 2.1 2.1 0 0 0 .33.06h.31c.23.47.86.68 2.41 1a10.2 10.2 0 0 1 1.76.56 9.55 9.55 0 0 0 1.53.48c0 .17.05.34.08.52a.53.53 0 0 1-.57.69H8.83a.84.84 0 0 1-.85-.7l.02.01ZM22.48 7.64h-5a1.31 1.31 0 0 0-1.14.83l-1.14 3.88a.64.64 0 0 0 .63.86h8.35a.64.64 0 0 0 .62-.86l-1.18-3.88a1.31 1.31 0 0 0-1.14-.83Zm-7.22 0H12a1.5 1.5 0 0 0-1.18.72c-.12.17-.22.35-.33.53.089.088.163.189.22.3l.14.29h.25c.48 0 1-1 1-1s1.08 1.32.65 2.28a1.58 1.58 0 0 1-1.37 1h-.17a2.38 2.38 0 0 1-.39.25 2.07 2.07 0 0 1-.36 1.13h3a1 1 0 0 0 .91-.76 30.82 30.82 0 0 1 1.27-4.09s.37-.72-.38-.72v.07Zm18-.07h-2.69c-1.1 0-.58.69-.58.69a14.47 14.47 0 0 1 2.1 4.12 1 1 0 0 0 1 .76h3.77c1 0 .63-.93.63-.93a13.2 13.2 0 0 0-2.43-4 2.73 2.73 0 0 0-1.88-.61l.08-.03Zm-2.08 6.37h-4.53a.53.53 0 0 0-.57.69 30 30 0 0 1 .39 3.82c.415-.2.87-.306 1.33-.31.33.053.666-.015.95-.19a1.19 1.19 0 0 1 .47-.45v-.13a1.52 1.52 0 0 1 1.21-1c.096-.01.194-.01.29 0 .472.02.92.213 1.26.54.153.135.313.262.48.38a22.25 22.25 0 0 0-.46-2.61.82.82 0 0 0-.85-.7l.03-.04ZM32 25.32c.22-.875.38-1.763.48-2.66a4.18 4.18 0 0 0-1.11-2l-.2-.18a3.42 3.42 0 0 0-1.83.12 11.35 11.35 0 0 0-3 2c0 .3 0 .6-.08.9a4.18 4.18 0 0 1 2.16.91 7.16 7.16 0 0 0 3.19 1.45.84.84 0 0 0 .35-.55l.04.01Zm-7.32 6.99H28c.488-.03.93-.3 1.18-.72a19.67 19.67 0 0 0 2-3.72A16 16 0 0 1 27.6 27h-.13a8.22 8.22 0 0 1-1.71.25 1.21 1.21 0 0 0-.08.22 32.41 32.41 0 0 1-1.28 4.09s-.37.72.38.72l-.1.03Zm-13.83-.75a1.5 1.5 0 0 0 1.18.72h3.27c.75 0 .38-.72.38-.72a30.82 30.82 0 0 1-1.27-4.09 1 1 0 0 0-.91-.76H9.16c-.81 0-.46.77-.46.77a20 20 0 0 0 2.11 4.08h.04ZM33.34 14c-.66 0-.49.69-.49.69a21.29 21.29 0 0 1 .54 3.31l1 .77c.31.244.598.515.86.81h3.1a.77.77 0 0 0 .8-.89 17.31 17.31 0 0 0-.65-3.85 1.17 1.17 0 0 0-1.18-.84h-3.98Zm-20 0h-3.7l-.17.11A3.48 3.48 0 0 1 8 14.5a.62.62 0 0 0-.06.18A22.87 22.87 0 0 0 7.53 17v.11c.075.333.237.64.47.89l.23.26a1.72 1.72 0 0 1 .43-.46 1.22 1.22 0 0 1-.24-.5 1.13 1.13 0 0 1 .18-.84l.59-.85a1.23 1.23 0 0 1 1-.52 1.22 1.22 0 0 1 .62.16l.15-.16a1.87 1.87 0 0 1 1.28-.41 3.76 3.76 0 0 1 1.38.27l.22.11.06-.39a.53.53 0 0 0-.57-.69l.01.02Zm11.99.86a1 1 0 0 0-1-.88h-8.66a1 1 0 0 0-1 .88l-.08.86a2.9 2.9 0 0 1 .54 1c.276-.11.575-.15.87-.12a2.6 2.6 0 0 1 .89.17c.4.14 5.87 2.49 6.61 2.81h1.4a.8.8 0 0 0 .38-.1l.06-.07a3 3 0 0 1 .29-.32 1.06 1.06 0 0 0 .08-.4l-.38-3.83Zm5.54-1.65c.81 0 .46-.77.46-.77a20 20 0 0 0-2.11-4.08A1.48 1.48 0 0 0 28 7.64h-3.26c-.75 0-.38.72-.38.72a32.41 32.41 0 0 1 1.28 4.09 1 1 0 0 0 .9.76h4.33Zm-9.2 11.68c.086.2.157.408.21.62a2.12 2.12 0 0 1 1.21-.38c.06 0 .69 0 .86.05.87.07 1-.44 1-.44a2.62 2.62 0 0 1 .48-.8l.06-.63a9.9 9.9 0 0 1-3.8 1.58h-.02Zm-5.98 1.13H17c-.14-.19-.26-.35-.33-.46l-.36-.56c-.55 0-1.12-.06-1.62-.1v.2a1 1 0 0 0 1 .88v.04Zm1.85 6.3h5a1.31 1.31 0 0 0 1.14-.83l1.14-3.74A8.91 8.91 0 0 1 21.91 29a4.75 4.75 0 0 1-1 .1A3 3 0 0 1 18.5 28l-.91-1.21h-1.76a.64.64 0 0 0-.63.86l1.18 3.88c.186.475.63.799 1.14.83l.02-.04Zm-1.02 1.47a1.19 1.19 0 0 0-1-.77h-2.83c-1 0-.15.8-.15.8a18.27 18.27 0 0 0 5.75 4.61c.83.36.93.35.59-.18-.48-.74-1.8-3.31-2.32-4.46h-.04Zm5.63-.79h-4.3c-.47 0-.67.37-.46.82a36.1 36.1 0 0 0 1.86 3.93c.34.58.42.65.75.65s.41-.07.75-.65a34.12 34.12 0 0 0 1.86-3.93c.21-.45 0-.82-.46-.82Zm-4.1 5.76a17.65 17.65 0 0 1-6.4-5A2.28 2.28 0 0 0 10 33H7.07s-1.1 0-.45.76a19.24 19.24 0 0 0 10 5.12c1 .17 2.54.37 1.47-.12h-.04Zm9.45-5s.83-.81-.15-.8h-2.87a1.19 1.19 0 0 0-1 .77c-.52 1.15-1.84 3.72-2.32 4.46-.34.53-.24.54.59.18a18.27 18.27 0 0 0 5.75-4.61Zm10.85-13.33H36a14.23 14.23 0 0 1 1.79 2.69l.13.29a.46.46 0 0 1-.29.62l-.3.09a2.67 2.67 0 0 0-.83.56 1.79 1.79 0 0 1-1.23.5 2.37 2.37 0 0 1-1-.24 5.82 5.82 0 0 0-.77-.06H33c0 .16-.07.31-.1.46-.03.15-.17.69.49.69h4a1.17 1.17 0 0 0 1.18-.85 17.41 17.41 0 0 0 .65-3.85.77.77 0 0 0-.8-.89l-.07-.01ZM6.79 32.36h2.64c1.1 0 .58-.69.58-.69a14.47 14.47 0 0 1-2.1-4.12 1 1 0 0 0-1-.76h-3.8c-1 0-.63.93-.63.93a13.2 13.2 0 0 0 2.43 4 2.73 2.73 0 0 0 1.88.61v.03Zm26.14.64H30a2.28 2.28 0 0 0-1.64.77 17.65 17.65 0 0 1-6.4 5c-1.07.49.46.29 1.47.12a19.24 19.24 0 0 0 10-5.12c.57-.77-.5-.77-.5-.77Zm4-6.23h-.68a.93.93 0 0 1 .15.52c0 .89-1 .89-1.79.89-.9-.01-1.797-.07-2.69-.18A14 14 0 0 1 30 31.67s-.52.69.58.69h2.64a2.73 2.73 0 0 0 1.88-.61 13.2 13.2 0 0 0 2.43-4s.37-.93-.63-.93l.03-.05ZM23.44 6.21a1.19 1.19 0 0 0 1 .77h2.83c1 0 .15-.8.15-.8a18.27 18.27 0 0 0-5.75-4.61c-.83-.36-.93-.35-.59.18.48.74 1.8 3.31 2.32 4.46h.04ZM6.66 26c.66 0 .49-.69.49-.69a22.1 22.1 0 0 1-.52-3.07 2.82 2.82 0 0 1-1-1.83H1.65a.78.78 0 0 0-.8.89 17.41 17.41 0 0 0 .65 3.85 1.17 1.17 0 0 0 1.18.85h3.98ZM17.85 7h4.3c.47 0 .67-.37.46-.82a33.3 33.3 0 0 0-1.86-3.93c-.34-.58-.42-.65-.75-.65s-.41.07-.75.65a35.18 35.18 0 0 0-1.86 3.93c-.21.45 0 .82.46.82ZM22 1.22a17.65 17.65 0 0 1 6.4 5A2.28 2.28 0 0 0 30 7h2.94s1.11 0 .45-.76a19.17 19.17 0 0 0-10-5.12c-1-.17-2.54-.37-1.47.12l.08-.02Zm-9.49 5.02s-.83.8.15.8h2.83a1.19 1.19 0 0 0 1-.77c.52-1.15 1.84-3.72 2.32-4.46.34-.53.24-.54-.59-.18a18.27 18.27 0 0 0-5.75 4.61h.04ZM1.65 19.57h3.83A3.28 3.28 0 0 0 5 18.15c-.53-1-.53-1.55-.83-2L4 15.77a1.93 1.93 0 0 1 0-1.61V14H2.68a1.17 1.17 0 0 0-1.18.85 17.31 17.31 0 0 0-.65 3.85.78.78 0 0 0 .8.89v-.02ZM7.07 7H10a2.28 2.28 0 0 0 1.64-.77 17.65 17.65 0 0 1 6.4-5c1.07-.49-.46-.29-1.47-.12a19.17 19.17 0 0 0-10 5.12c-.57.77.5.77.5.77Zm-4 6.23h1.37v-.11a3.85 3.85 0 0 1 .28-1l-.08-.25a2.24 2.24 0 0 1 .51-2.12 2 2 0 0 1 1.59-.7c.47 0 1 .3 1.51.27a.42.42 0 0 0 .23-.06 1.78 1.78 0 0 1 1.25-.69h.06l.21-.24s.52-.69-.58-.69H6.79a2.73 2.73 0 0 0-1.88.61 13.2 13.2 0 0 0-2.43 4s-.37.93.63.93l-.04.05Z" fill="#0072D3"/><path d="M4.61 15.41a1.15 1.15 0 0 1 0-1c.23-.55.48-.58.59-1.21a1.89 1.89 0 0 1 1.59-1.77C8 11.21 8.91 13 10 11.86a1.53 1.53 0 0 1-.92 1.57 2.5 2.5 0 0 1-2.28.1c-.33-.13-.93-.65-1.13 0-.2.65 1 .43.78 1.52a1.43 1.43 0 0 0-1.88.33m3.94-4.24a2.08 2.08 0 0 0 .72-.94c.3-.68.76-.7.76-.7-.19-.38-.6-.14-1 .26S7.86 10 7.55 10a1.68 1.68 0 0 0-1.81.31 1.51 1.51 0 0 0-.37 1.39 3 3 0 0 1 3.18-.48m2.18.08c.45-.37 1 .05 1.31-.76a1 1 0 0 0 0-.87c-.47.71-.79.66-1.5.57-.71-.09-.77.22-1.11.68a1.79 1.79 0 0 1-.59.58c.4.36 1.43.16 1.89-.2m-5.22 4.12a1 1 0 0 0 .58 1.85.94.94 0 0 0 .55-1.19.93.93 0 0 0-1.13-.66m.79 4.82A2 2 0 0 0 7.9 22c.68.06 1.06-.26 1-1.12-.06-.86-1-1.78-1.51-2.42a2.55 2.55 0 0 1-.61-1.24 1.05 1.05 0 0 1-1.29.39 4.39 4.39 0 0 1 .77 2.61m3.31-2a.87.87 0 1 0 0 1.74.87.87 0 0 0 0-1.74m2.22.31.51-.88a.51.51 0 0 0-.16-.68l-1.71-1.07a.5.5 0 0 0-.63.1l-.58.84a.36.36 0 0 0 .09.51l2 1.28a.37.37 0 0 0 .53-.13m-1.14 1.38a.83.83 0 0 1-.47.22c1.28.43.57 0 1.77-.08a2.24 2.24 0 0 0 2.41-1.71 2.17 2.17 0 0 0-1-2.71 2.08 2.08 0 0 0-1.87 0 .27.27 0 0 0 .06.49s.68.43 1.1.75a.62.62 0 0 1 .23.75s-.49.88-.78 1.29c-.29.41-1 .31-1 .31l-.45.69m0 3.12c1.8.38 2.35 1 4 1.15 1.65.15 4.12.17 4.12.17a16.93 16.93 0 0 1-.13-2c-1.81-.3-2.5-.4-3.08-1.11-.58-.71.12-1.75.12-1.75a1.57 1.57 0 0 0-1.06-.45 3 3 0 0 1-2.49 1.45.84.84 0 0 0-.77.17c-.25.18-.54.14-1.22-.13-.68-.27-.73.17-.73.17-.09 1.5-.47 1.37-.65 1.55-.18.18.12.39 1.86.75m10.24-2.77a2.83 2.83 0 0 0 2.42.51.32.32 0 0 0-.18-.51s-6.2-2.66-6.59-2.8a1.29 1.29 0 0 0-1.37.16 1.23 1.23 0 0 0-.31 1c1.05.19 1.3.71 1.3.71a9.14 9.14 0 0 1 4.73.95M19.14 22c0 .29.15 2.83.15 2.83a1.3 1.3 0 0 0 1.07.16 12.59 12.59 0 0 0 .54-4c-.18-.52-.45-.63-1.84-.94a8.32 8.32 0 0 0-2.64-.29.83.83 0 0 0-.48 1c.12.54.88.8.88.8.762.214 1.537.38 2.32.5m.86 4.7a.63.63 0 0 0 .5-.94.93.93 0 0 0-1.07-.42c-.33.1-.4.52-.4.52-.19.71.5.9 1 .84m1.44-5.67a12.76 12.76 0 0 1-.47 3.13 8.81 8.81 0 0 0 4.56-1.91c2.29-1.8 2.68-2.07 3.53-2.38a3.74 3.74 0 0 1 1.79-.22c.4 0 .75.22.92-.08.17-.3-.88-1.18-1.51-1.37-.63-.19-.8-.1-.92.15a1.91 1.91 0 0 1-1.49.52 2.54 2.54 0 0 0-2 .93 4.64 4.64 0 0 1-4.49 1.23m11-1.58c.13.41-.5.62-.5.62 1.5 1.31 1.65 4 1.65 4a4.68 4.68 0 0 1 1 .09 1.15 1.15 0 0 0 1.46-.09 3.17 3.17 0 0 1 1.11-.72A15.74 15.74 0 0 0 34 19.36c-.79-.58-1.88-1.47-2.23-1.73-.35-.26-.62-.59-1.12-.5a.8.8 0 0 0-.63.5 4.91 4.91 0 0 1 2.41 1.88M19 27.44a2.45 2.45 0 0 0 2.76.86c1.9-.39 3.2-1.75 3.87-1.72a7 7 0 0 0 1.63-.22c-.45-1-2-1.09-2-1.09-.35.54-1 .58-2.11.52a1.4 1.4 0 0 0-1.43.66s-.34 0-.47-.6a1.29 1.29 0 0 0-.48-.79.41.41 0 0 0-.1.61 1 1 0 0 1 .08.95 1.2 1.2 0 0 1-1.68.33c-.88-.54-.26-1.83-.26-1.83h-1.52s1.5 2.08 1.71 2.31m8.74-1.13c2.63 1.12 7.88 1.33 7.88 1 0-.33-.32-.24-.32-.24-4.75-.18-6.47-1.4-7.29-2.06a4.67 4.67 0 0 0-1.85-.86c-.46.06-.65.63-.65.63a2.82 2.82 0 0 1 2.23 1.53" fill="#F23D4E"/><path d="m73.79 7.64 8.46 24.71H58.69l4.76-14.76h6.17l-2.87 8.89H74L67.66 7.64h6.13Zm21.08 0h-11v5.87h7.69a6.46 6.46 0 1 1-.11 12.92h-1.71v-8.84h-5.87v14.76h11c5.65-.51 9.72-6.3 9.72-12.33s-4.5-11.87-9.72-12.38ZM62 15.43a8 8 0 0 0-7.82-7.79H45v5.87h8.36a1.94 1.94 0 0 1 1.91 1.92 2.15 2.15 0 0 1-2 2.16H45v14.76h5.87v-9h3.31a8.06 8.06 0 0 0 7.8-7.9l.02-.02Zm49.92-7.77h-5.87v24.69h5.87V7.66Z" fill="#000"/></g><path d="M113.072 8.923c0-.633.516-1.116 1.131-1.116.612 0 1.125.483 1.125 1.116 0 .645-.513 1.128-1.125 1.128a1.122 1.122 0 0 1-1.131-1.128Zm.204 0c0 .549.402.963.927.963.519 0 .921-.414.921-.963 0-.537-.402-.951-.921-.951-.525 0-.927.414-.927.951Zm.489.66V8.272h.507c.312 0 .459.123.459.375 0 .237-.15.336-.345.357l.375.579h-.219l-.357-.564h-.216v.564h-.204Zm.204-1.146v.417h.213c.18 0 .345-.009.345-.216 0-.174-.15-.201-.288-.201h-.27Z" fill="#000"/></g></svg>